<svg xmlns:dc="http://purl.org/dc/elements/1.1/" xmlns:cc="http://creativecommons.org/ns#" xmlns:rdf="http://www.w3.org/1999/02/22-rdf-syntax-ns#" xmlns:svg="http://www.w3.org/2000/svg" xmlns="http://www.w3.org/2000/svg" xmlns:sodipodi="http://sodipodi.sourceforge.net/DTD/sodipodi-0.dtd" xmlns:inkscape="http://www.inkscape.org/namespaces/inkscape" viewBox="0 0 16.933333 21.1666675" version="1.1" x="0px" y="0px"><g transform="translate(0,-280.06665)"><path style="color:#000000;font-style:normal;font-variant:normal;font-weight:normal;font-stretch:normal;font-size:medium;line-height:normal;font-family:sans-serif;font-variant-ligatures:normal;font-variant-position:normal;font-variant-caps:normal;font-variant-numeric:normal;font-variant-alternates:normal;font-feature-settings:normal;text-indent:0;text-align:start;text-decoration:none;text-decoration-line:none;text-decoration-style:solid;text-decoration-color:#000000;letter-spacing:normal;word-spacing:normal;text-transform:none;writing-mode:lr-tb;direction:ltr;text-orientation:mixed;dominant-baseline:auto;baseline-shift:baseline;text-anchor:start;white-space:normal;shape-padding:0;clip-rule:nonzero;display:inline;overflow:visible;visibility:visible;opacity:1;isolation:auto;mix-blend-mode:normal;color-interpolation:sRGB;color-interpolation-filters:linearRGB;solid-color:#000000;solid-opacity:1;vector-effect:none;fill:#000000;fill-opacity:1;fill-rule:nonzero;stroke:none;stroke-width:0.5291667;stroke-linecap:butt;stroke-linejoin:round;stroke-miterlimit:4;stroke-dasharray:none;stroke-dashoffset:0;stroke-opacity:1;color-rendering:auto;image-rendering:auto;shape-rendering:auto;text-rendering:auto;enable-background:accumulate" d="m 3.4385422,281.12447 c -0.5817368,0 -1.0562644,0.47659 -1.0562644,1.05833 v 12.70155 c 0,0.58173 0.4745276,1.05626 1.0562644,1.05626 H 13.493228 c 0.581736,0 1.058849,-0.47453 1.058849,-1.05626 V 282.1828 c 0,-0.58174 -0.477113,-1.05833 -1.058849,-1.05833 H 7.4072922 4.7630093 Z m 0,0.52916 h 1.0588519 v 4.76405 a 0.26460982,0.26460982 0 0 0 0.4532022,0.18552 l 1.1342978,-1.13481 1.1368802,1.13481 a 0.26460982,0.26460982 0 0 0 0.4511358,-0.18552 v -4.76405 h 5.8203179 c 0.297733,0 0.529166,0.23144 0.529166,0.52917 v 12.70155 c 0,0.29772 -0.231433,0.5271 -0.529166,0.5271 H 3.4385422 c -0.297733,0 -0.5270977,-0.22938 -0.5270977,-0.5271 V 282.1828 c 0,-0.29773 0.2293647,-0.52917 0.5270977,-0.52917 z m 1.5880186,0 h 2.1171826 v 4.12533 l -0.871265,-0.87333 a 0.26460982,0.26460982 0 0 0 -0.3746526,0 l -0.871265,0.87333 z m -0.5291667,7.67395 v 0.52917 h 0.2656152 7.4083337 0.263551 v -0.52917 H 12.171343 4.7630093 Z m 0.013441,1.07022 v 0.50385 H 4.7630095 10.583327 10.83499 V 290.3978 H 10.583327 4.7630093 Z m -0.013441,1.0449 v 0.52916 h 0.2656152 7.4083337 0.263551 V 291.4427 H 12.171343 4.7630093 Z m 0.013441,1.07228 v 0.50385 h 0.2521797 l 5.8203122,-0.002 h 0.251663 v -0.50177 H 10.583327 4.7630093 Z"/></g><text x="0" y="31.933334" fill="#000000" font-size="5px" font-weight="bold" font-family="'Helvetica Neue', Helvetica, Arial-Unicode, Arial, Sans-serif">Created by Handicon</text><text x="0" y="36.933334" fill="#000000" font-size="5px" font-weight="bold" font-family="'Helvetica Neue', Helvetica, Arial-Unicode, Arial, Sans-serif">from the Noun Project</text></svg>